<svg xmlns="http://www.w3.org/2000/svg" xmlns:xlink="http://www.w3.org/1999/xlink" width="339.399" height="90.77" viewBox="0 0 339.399 90.77"><defs><linearGradient id="a" x1="0.492" y1="0.208" x2="0.505" y2="0.814" gradientUnits="objectBoundingBox"><stop offset="0" stop-color="#e5331f"/><stop offset="0.995" stop-color="#e95818"/></linearGradient><linearGradient id="b" x1="0.086" y1="0.5" x2="1.086" y2="0.5" gradientUnits="objectBoundingBox"><stop offset="0.168" stop-color="#e5331f"/><stop offset="0.448" stop-color="#e95818"/></linearGradient></defs><g transform="translate(-2532.398 175.245)"><g transform="translate(2532.398 -175.245)"><path d="M2605.363-92.328h20.446v-56.09l-15.5-11.575-.15,52.645" transform="translate(-2510.383 179.846)" fill="url(#a)"/><g transform="translate(131.184 20.388)"><path d="M2674.937-138.179V-110.5h-11.155l-1.324-4.95a16.04,16.04,0,0,1-5.4,4.184,17.336,17.336,0,0,1-7.914,1.743q-8.437,0-12.2-5.752t-3.765-19.277q0-13.8,5.09-19.416t17.568-5.612a62.659,62.659,0,0,1,17.081,2.02l-1.116,10.877q-10.6-.139-15.9-.139-4.044,0-5.437,2.439t-1.4,9.831q0,7.252,1.255,9.69t4.881,2.441a35.382,35.382,0,0,0,5.228-.418v-15.338Z" transform="translate(-2633.176 159.582)" fill="#212121"/><path d="M2688.151-149.406q10.669,0,15.061,4.147t4.391,14.328q0,10.038-4.391,14.117t-15.061,4.078q-10.734,0-15.127-4.078t-4.392-14.117q0-10.179,4.392-14.328T2688.151-149.406Zm0,9.9q-2.58,0-3.382,1.6t-.8,6.972q0,5.159.8,6.727t3.382,1.569q2.513,0,3.313-1.569t.8-6.727q0-5.368-.8-6.972T2688.151-139.506Z" transform="translate(-2622.478 162.652)" fill="#212121"/><path d="M2741.479-148.656l-10.32,31.442a4.4,4.4,0,0,1-4.6,3.417h-12.479a4.406,4.406,0,0,1-4.6-3.417l-10.318-31.442h15.478l4.252,19.242q.418,2.023.976,6.553h.906q.071-.348,1.045-6.553L2726-148.656Z" transform="translate(-2613.268 162.879)" fill="#212121"/><path d="M2756.605-127.794h-8.713a4.344,4.344,0,0,0,1.708,3,7.7,7.7,0,0,0,4.08.836,136.178,136.178,0,0,0,14.152-.765l1.324,8.784q-6.346,3.206-17.081,3.206-10.665,0-15.268-4.426t-4.6-13.561q0-10.247,4.461-14.466t15.339-4.218q9.622,0,13.84,3.067t4.287,9.342q.07,4.95-2.963,7.076T2756.605-127.794Zm-8.992-6.9h4.88a6.109,6.109,0,0,0,3-.453q.627-.453.627-2.2a2.372,2.372,0,0,0-.8-2.126,5.678,5.678,0,0,0-2.894-.523q-2.788-.068-3.729.906T2747.613-134.7Z" transform="translate(-2603.297 162.652)" fill="#212121"/><path d="M2779.393-159.368v36.114q0,2.509,3.487,2.51h2.369l1.605,9.342a13.367,13.367,0,0,1-4.568,1.325,37.927,37.927,0,0,1-5.682.488q-5.509,0-8.646-2.58a8.789,8.789,0,0,1-3.136-7.18v-40.019Z" transform="translate(-2593.456 159.647)" fill="#212121"/></g><path d="M2611.143-149.774l16.784,16.784v-24.271l-17.983-17.983H2532.4l18.919,18.919v31.706l18.977,18.976h39.167l17.917,17.917h20.446l-46.967-46.967-8.75-8.749h-23.029l19.843,19.843h-20.516v-35.682h42.738Z" transform="translate(-2532.398 175.245)" fill="url(#b)"/><path d="M2601.019-112.987l17.917,17.917h20.446l-46.966-46.967-8.75-8.75h-23.029l19.843,19.843Z" transform="translate(-2523.877 182.624)" fill="#e5331f"/><g transform="translate(328.703 57.741)"><path d="M2790.272-130.887a5.143,5.143,0,0,1,3.775,1.563,5.141,5.141,0,0,1,1.562,3.774,5.169,5.169,0,0,1-1.562,3.8,5.138,5.138,0,0,1-3.775,1.563,5.167,5.167,0,0,1-3.8-1.563,5.168,5.168,0,0,1-1.562-3.8,5.14,5.14,0,0,1,1.562-3.774A5.172,5.172,0,0,1,2790.272-130.887Zm0,10.1a4.53,4.53,0,0,0,3.318-1.394,4.584,4.584,0,0,0,1.394-3.365,4.61,4.61,0,0,0-1.382-3.366,4.518,4.518,0,0,0-3.33-1.394,4.518,4.518,0,0,0-3.329,1.394,4.609,4.609,0,0,0-1.381,3.366,4.6,4.6,0,0,0,1.381,3.365A4.518,4.518,0,0,0,2790.272-120.791Zm1.227-4.566v.048a1.177,1.177,0,0,1,.938.936l.793,2.02h-.816l-.746-1.972a1.089,1.089,0,0,0-1.107-.745l-1.923-.023v2.74h-.769v-6.419q.841-.07,2.644-.072a3.378,3.378,0,0,1,1.9.4,1.65,1.65,0,0,1,.552,1.429,1.755,1.755,0,0,1-.336,1.178A1.739,1.739,0,0,1,2791.5-125.357Zm-2.861-.289h1.851a2.444,2.444,0,0,0,1.334-.3,1.171,1.171,0,0,0,.372-1,1.168,1.168,0,0,0-.372-1.01,2.439,2.439,0,0,0-1.334-.264h-1.851Z" transform="translate(-2784.913 130.887)" fill="#1d1d1b"/></g></g><text transform="translate(2667.003 -88.475)" fill="#e5331f" font-size="16" font-family="'Exo \32 '" font-weight="300"><tspan x="0" y="0">Proyectos Arquitectónicos</tspan></text></g></svg>